<mxfile host="app.diagrams.net" modified="2023-07-25T13:29:41.681Z" agent="Mozilla/5.0 (Macintosh; Intel Mac OS X 10_15_7) AppleWebKit/537.36 (KHTML, like Gecko) Chrome/114.0.0.0 Safari/537.36" etag="ElMGlnsdurdrJN3L3nYY" version="21.6.5" type="github">
  <diagram name="第 1 页" id="iURYr1PqEKKGJdDp2-O8">
    <mxGraphModel dx="1434" dy="828" grid="1" gridSize="10" guides="1" tooltips="1" connect="1" arrows="1" fold="1" page="1" pageScale="1" pageWidth="827" pageHeight="1169" math="0" shadow="0">
      <root>
        <mxCell id="0" />
        <mxCell id="1" parent="0" />
        <mxCell id="hPLPeUS3QsDFk2FpPuLF-1" value="" style="rounded=0;whiteSpace=wrap;html=1;" vertex="1" parent="1">
          <mxGeometry x="240" y="80" width="180" height="20" as="geometry" />
        </mxCell>
        <mxCell id="hPLPeUS3QsDFk2FpPuLF-2" value="" style="rounded=0;whiteSpace=wrap;html=1;" vertex="1" parent="1">
          <mxGeometry x="420" y="80" width="110" height="20" as="geometry" />
        </mxCell>
        <mxCell id="hPLPeUS3QsDFk2FpPuLF-3" value="" style="rounded=0;whiteSpace=wrap;html=1;" vertex="1" parent="1">
          <mxGeometry x="530" y="80" width="110" height="20" as="geometry" />
        </mxCell>
        <mxCell id="hPLPeUS3QsDFk2FpPuLF-4" value="&lt;i&gt;t&lt;/i&gt; bits" style="text;html=1;strokeColor=none;fillColor=none;align=center;verticalAlign=middle;whiteSpace=wrap;rounded=0;" vertex="1" parent="1">
          <mxGeometry x="300" y="52" width="60" height="30" as="geometry" />
        </mxCell>
        <mxCell id="hPLPeUS3QsDFk2FpPuLF-5" value="&lt;i&gt;s&lt;/i&gt; bits" style="text;html=1;strokeColor=none;fillColor=none;align=center;verticalAlign=middle;whiteSpace=wrap;rounded=0;" vertex="1" parent="1">
          <mxGeometry x="445" y="52" width="60" height="30" as="geometry" />
        </mxCell>
        <mxCell id="hPLPeUS3QsDFk2FpPuLF-6" value="&lt;i&gt;b&lt;/i&gt; bits" style="text;html=1;strokeColor=none;fillColor=none;align=center;verticalAlign=middle;whiteSpace=wrap;rounded=0;" vertex="1" parent="1">
          <mxGeometry x="570" y="52" width="60" height="30" as="geometry" />
        </mxCell>
        <mxCell id="hPLPeUS3QsDFk2FpPuLF-7" value="&lt;b&gt;Address&lt;/b&gt;" style="text;html=1;strokeColor=none;fillColor=none;align=center;verticalAlign=middle;whiteSpace=wrap;rounded=0;" vertex="1" parent="1">
          <mxGeometry x="140" y="75" width="60" height="30" as="geometry" />
        </mxCell>
      </root>
    </mxGraphModel>
  </diagram>
</mxfile>
